<?xml version="1.0" encoding="UTF-8" standalone="no"?>
<!-- Created with Inkscape (http://www.inkscape.org/) -->

<svg
   width="32"
   height="32"
   viewBox="0 0 8.4666665 8.4666666"
   version="1.1"
   id="svg1"
   xml:space="preserve"
   inkscape:export-filename="zoomin_rest.png"
   inkscape:export-xdpi="96"
   inkscape:export-ydpi="96"
   inkscape:version="1.4 (e7c3feb1, 2024-10-09)"
   sodipodi:docname="icons.svg"
   xmlns:inkscape="http://www.inkscape.org/namespaces/inkscape"
   xmlns:sodipodi="http://sodipodi.sourceforge.net/DTD/sodipodi-0.dtd"
   xmlns="http://www.w3.org/2000/svg"
   xmlns:svg="http://www.w3.org/2000/svg"><sodipodi:namedview
     id="namedview1"
     pagecolor="#ffffff"
     bordercolor="#000000"
     borderopacity="0.25"
     inkscape:showpageshadow="2"
     inkscape:pageopacity="0.0"
     inkscape:pagecheckerboard="0"
     inkscape:deskcolor="#d1d1d1"
     inkscape:document-units="px"
     showgrid="true"
     inkscape:zoom="35.36271"
     inkscape:cx="21.505705"
     inkscape:cy="15.765194"
     inkscape:window-width="1920"
     inkscape:window-height="1022"
     inkscape:window-x="1440"
     inkscape:window-y="30"
     inkscape:window-maximized="1"
     inkscape:current-layer="layer1"><inkscape:grid
       id="grid1"
       units="px"
       originx="0"
       originy="0"
       spacingx="0.26458333"
       spacingy="0.26458333"
       empcolor="#e50000"
       empopacity="0.30196078"
       color="#0099e5"
       opacity="0.14901961"
       empspacing="8"
       enabled="true"
       visible="true" /></sodipodi:namedview><defs
     id="defs1" /><g
     inkscape:label="Capa 1"
     inkscape:groupmode="layer"
     id="layer1"><rect
       style="display:inline;fill:#ffffff;stroke-width:2;stroke-linecap:round;paint-order:markers stroke fill"
       id="rect1"
       width="7.4083333"
       height="7.4083328"
       x="0.52916664"
       y="0.52916664"
       ry="3.7041664"
       inkscape:label="disabled" /><rect
       style="display:none;fill:#000000;stroke-width:2;stroke-linecap:round;paint-order:markers stroke fill"
       id="rect1-4"
       width="7.4083333"
       height="7.4083328"
       x="0.52916664"
       y="0.52916664"
       ry="3.7041664"
       inkscape:label="active" /><g
       style="display:none;fill:#000000"
       id="g1"
       transform="matrix(0.26458333,0,0,0.26458333,2.135981,2.1748748)"
       inkscape:label="fullscreen"><path
         fill-rule="evenodd"
         d="m 5.828,10.172 a 0.5,0.5 0 0 0 -0.707,0 L 1.025,14.268 V 11.5 a 0.5,0.5 0 0 0 -1,0 v 3.975 a 0.5,0.5 0 0 0 0.5,0.5 H 4.5 a 0.5,0.5 0 0 0 0,-1 H 1.732 l 4.096,-4.096 a 0.5,0.5 0 0 0 0,-0.707 m 4.344,0 a 0.5,0.5 0 0 1 0.707,0 l 4.096,4.096 V 11.5 a 0.5,0.5 0 1 1 1,0 v 3.975 a 0.5,0.5 0 0 1 -0.5,0.5 H 11.5 a 0.5,0.5 0 0 1 0,-1 h 2.768 l -4.096,-4.096 a 0.5,0.5 0 0 1 0,-0.707 m 0,-4.344 a 0.5,0.5 0 0 0 0.707,0 L 14.975,1.732 V 4.5 a 0.5,0.5 0 1 0 1,0 V 0.525 a 0.5,0.5 0 0 0 -0.5,-0.5 H 11.5 a 0.5,0.5 0 0 0 0,1 h 2.768 l -4.096,4.096 a 0.5,0.5 0 0 0 0,0.707 m -4.344,0 a 0.5,0.5 0 0 1 -0.707,0 L 1.025,1.732 V 4.5 a 0.5,0.5 0 0 1 -1,0 V 0.525 a 0.5,0.5 0 0 1 0.5,-0.5 H 4.5 a 0.5,0.5 0 0 1 0,1 H 1.732 l 4.096,4.096 a 0.5,0.5 0 0 1 0,0.707"
         id="path1"
         style="fill:#000000" /></g><g
       style="display:none;fill:#000000"
       id="g2"
       transform="matrix(0.26458333,0,0,0.26458333,2.1166664,2.0618977)"
       inkscape:label="home"><path
         d="m 8.707,1.5 a 1,1 0 0 0 -1.414,0 L 0.646,8.146 A 0.5006316,0.5006316 0 0 0 1.354,8.854 L 2,8.207 V 13.5 A 1.5,1.5 0 0 0 3.5,15 h 9 A 1.5,1.5 0 0 0 14,13.5 V 8.207 l 0.646,0.647 A 0.5006316,0.5006316 0 0 0 15.354,8.146 L 13,5.793 V 2.5 A 0.5,0.5 0 0 0 12.5,2 h -1 A 0.5,0.5 0 0 0 11,2.5 V 3.793 Z M 13,7.207 V 13.5 A 0.5,0.5 0 0 1 12.5,14 h -9 A 0.5,0.5 0 0 1 3,13.5 V 7.207 l 5,-5 z"
         id="path1-5"
         style="fill:#000000" /></g><g
       style="display:none;fill:#000000"
       id="g3"
       transform="matrix(0.26458333,0,0,0.26458333,1.9576519,2.0767143)"
       inkscape:label="previous-next"><path
         d="m 3.86,8.753 5.482,4.796 C 9.988,14.115 11,13.655 11,12.796 V 3.204 A 1,1 0 0 0 9.341,2.451 l -5.48,4.796 a 1,1 0 0 0 0,1.506 z"
         id="path1-3"
         style="fill:#000000" /></g><g
       style="display:none;fill:#000000"
       id="g4"
       transform="matrix(0.26458333,0,0,0.26458333,-0.5290484,0.39695855)"
       inkscape:label="rotate"><path
         fill-rule="evenodd"
         d="m 24.572159,11.926684 a 0.5,0.5 0 0 0 0,-0.708 l -4,-4.0000003 a 0.5006316,0.5006316 0 1 0 -0.708,0.708 l 3.147,3.1460003 h -9.793 a 2.5,2.5 0 0 0 -2.5,2.5 v 8 a 0.5,0.5 0 0 0 1,0 v -8 a 1.5,1.5 0 0 1 1.5,-1.5 h 9.793 l -3.147,3.146 a 0.5006316,0.5006316 0 1 0 0.708,0.708 z"
         id="path1-9"
         style="fill:#000000" /></g><g
       style="display:none;fill:#000000"
       id="g6"
       transform="matrix(0.26458333,0,0,0.26458333,2.116706,2.1169044)"
       inkscape:label="zoomout"><path
         fill-rule="evenodd"
         d="m 6.5,12 a 5.5,5.5 0 1 0 0,-11 5.5,5.5 0 0 0 0,11 M 13,6.5 a 6.5,6.5 0 1 1 -13,0 6.5,6.5 0 0 1 13,0"
         id="path1-7"
         style="fill:#000000" /><path
         d="m 10.327177,11.716766 q 0.044,0.06 0.098,0.115 l 3.85,3.85 a 1.0002026,1.0002026 0 0 0 1.415,-1.414 l -3.85,-3.85 a 1,1 0 0 0 -0.115,-0.1 6.5,6.5 0 0 1 -1.398,1.4 z"
         id="path2-4"
         style="fill:#000000" /><path
         fill-rule="evenodd"
         d="M 3,6.5 A 0.5,0.5 0 0 1 3.5,6 h 6 a 0.5,0.5 0 0 1 0,1 h -6 A 0.5,0.5 0 0 1 3,6.5"
         id="path3-5"
         style="fill:#000000" /></g><g
       style="display:inline;fill:#000000"
       id="g5"
       transform="matrix(0.26458333,0,0,0.26458333,2.116706,2.1166398)"
       inkscape:label="zoomin"><path
         fill-rule="evenodd"
         d="m 6.5,12 a 5.5,5.5 0 1 0 0,-11 5.5,5.5 0 0 0 0,11 M 13,6.5 a 6.5,6.5 0 1 1 -13,0 6.5,6.5 0 0 1 13,0"
         id="path1-6"
         style="fill:#000000" /><path
         d="m 10.344,11.742 q 0.044,0.06 0.098,0.115 l 3.85,3.85 a 1.0002026,1.0002026 0 0 0 1.415,-1.414 l -3.85,-3.85 a 1,1 0 0 0 -0.115,-0.1 6.5,6.5 0 0 1 -1.398,1.4 z"
         id="path2"
         style="fill:#000000" /><path
         fill-rule="evenodd"
         d="M 6.5,3 A 0.5,0.5 0 0 1 7,3.5 V 6 h 2.5 a 0.5,0.5 0 0 1 0,1 H 7 v 2.5 a 0.5,0.5 0 0 1 -1,0 V 7 H 3.5 a 0.5,0.5 0 0 1 0,-1 H 6 V 3.5 A 0.5,0.5 0 0 1 6.5,3"
         id="path3"
         style="fill:#000000" /></g></g></svg>
